<svg width="116" height="20" viewBox="0 0 116 20" fill="none" xmlns="http://www.w3.org/2000/svg">
<path d="M10.0001 1.66663L12.5751 6.88329L18.3334 7.72496L14.1667 11.7833L15.1501 17.5166L10.0001 14.8083L4.85008 17.5166L5.83342 11.7833L1.66675 7.72496L7.42508 6.88329L10.0001 1.66663Z" fill="#1A1A1A" stroke="#1A1A1A" stroke-width="1.5" stroke-linecap="round" stroke-linejoin="round"/>
<path d="M34.0001 1.66663L36.5751 6.88329L42.3334 7.72496L38.1667 11.7833L39.1501 17.5166L34.0001 14.8083L28.8501 17.5166L29.8334 11.7833L25.6667 7.72496L31.4251 6.88329L34.0001 1.66663Z" fill="#1A1A1A" stroke="#1A1A1A" stroke-width="1.5" stroke-linecap="round" stroke-linejoin="round"/>
<path d="M58.0001 1.66663L60.5751 6.88329L66.3334 7.72496L62.1667 11.7833L63.1501 17.5166L58.0001 14.8083L52.8501 17.5166L53.8334 11.7833L49.6667 7.72496L55.4251 6.88329L58.0001 1.66663Z" fill="#1A1A1A" stroke="#1A1A1A" stroke-width="1.5" stroke-linecap="round" stroke-linejoin="round"/>
<path d="M82.0001 1.66663L84.5751 6.88329L90.3334 7.72496L86.1667 11.7833L87.1501 17.5166L82.0001 14.8083L76.8501 17.5166L77.8334 11.7833L73.6667 7.72496L79.4251 6.88329L82.0001 1.66663Z" fill="#1A1A1A" stroke="#1A1A1A" stroke-width="1.5" stroke-linecap="round" stroke-linejoin="round"/>
<path d="M106 1.66663L108.575 6.88329L114.333 7.72496L110.167 11.7833L111.15 17.5166L106 14.8083L100.85 17.5166L101.833 11.7833L97.6667 7.72496L103.425 6.88329L106 1.66663Z" stroke="#1A1A1A" stroke-width="1.5" stroke-linecap="round" stroke-linejoin="round"/>
</svg>
